<svg xmlns="http://www.w3.org/2000/svg" width="1280" height="520" viewBox="0 0 1280 520" role="img" aria-labelledby="title desc">
<title id="title">MU Poise · UI DESIGN</title><desc id="desc">Considered details. Responsive by design. An open-source MU LABS agent skill by Mustundead. The interface illustration is a teaching example.</desc>
<rect width="1280" height="520" rx="28" fill="#f5f5f7"/>
<g font-family="-apple-system,BlinkMacSystemFont,Segoe UI,Helvetica,Arial,sans-serif">
<text x="68" y="66" font-size="17" font-weight="600" letter-spacing="4" fill="#1d1d1f">MU LABS</text>
<text x="1212" y="64" text-anchor="end" font-size="12" letter-spacing="2" fill="#626268">OPEN SOURCE / AGENT SKILL</text>
<text x="66" y="230" font-size="92" letter-spacing="-5" font-weight="600" fill="#1d1d1f">MU Poise</text>
<text x="70" y="280" font-size="21" font-weight="500" letter-spacing="4" fill="#626268">UI DESIGN</text>
<text x="70" y="335" font-size="21" fill="#626268">Considered details. Responsive by design.</text>
<text x="70" y="463" font-size="13" fill="#626268">By Mustundead</text>
<text x="1212" y="463" text-anchor="end" font-size="13" fill="#626268">v1.0.1 · MIT</text>
<line x1="744" y1="267" x2="1144" y2="267" stroke="#d9d9df" stroke-width="2"/>
<rect x="748" y="203" width="86" height="128" rx="19" fill="none" stroke="#76767d" stroke-dasharray="5 7"/>
<rect x="994" y="148" width="146" height="236" rx="26" fill="none" stroke="#d9d9df"/>
<g transform="rotate(-6 942 265)"><rect x="846" y="174" width="178" height="198" rx="25" fill="#ffffff" stroke="#d9d9df"/><rect x="910" y="191" width="48" height="5" rx="2.5" fill="#76767d"/><rect x="871" y="226" width="63" height="15" rx="7.5" fill="#1d1d1f"/><rect x="871" y="260" width="128" height="7" rx="3.5" fill="#d9d9df"/><rect x="871" y="278" width="96" height="7" rx="3.5" fill="#d9d9df"/><rect x="871" y="310" width="128" height="37" rx="10" fill="#1d1d1f"/></g>
<circle cx="1144" cy="267" r="6" fill="#f5f5f7" stroke="#626268"/>
<text x="945" y="432" text-anchor="middle" font-size="13" fill="#626268">Continuous feedback. Control at every moment.</text>
</g></svg>